<svg aria-hidden="true" style="position: absolute; width: 0; height: 0; overflow: hidden;" version="1.1" xmlns="http://www.w3.org/2000/svg" xmlns:xlink="http://www.w3.org/1999/xlink">
<defs>

<!-- Close icon -->
<symbol id="icon-close" viewBox="0 0 32 32">
<path fill="none" stroke="#fff" style="stroke: var(--color1, #fff)" stroke-linejoin="miter" stroke-linecap="butt" stroke-miterlimit="4" stroke-width="2" d="M2.52 2l26.96 28M2 29.48l28-26.96"></path>
</symbol>

<!-- Open menu icon -->
<symbol id="icon-burger" viewBox="0 0 46 32">
<path fill="none" stroke="#d41443" style="stroke: var(--color2, #d41443)" stroke-linejoin="miter" stroke-linecap="butt" stroke-miterlimit="4" stroke-width="2.2857" d="M0 2.286h45.714M0 16h45.714M0 29.714h45.714"></path>
</symbol>

<!-- Logo -->
<symbol id="logo-icon" viewBox="0 0 32 32">
<path fill="#d41443" style="fill: var(--color1, #d41443)" d="M32 16c0 8.837-7.163 16-16 16-2.903 0-5.625-0.773-7.972-2.124-1.736-1-3.268-2.317-4.515-3.871-0.513-0.639-0.978-1.319-1.389-2.033v-0.001c-1.352-2.347-2.124-5.068-2.124-7.971 0-8.837 7.163-16 16-16s16 7.163 16 16z"></path>
<path fill="#f06798" style="fill: var(--color2, #f06798)" d="M28.786 12.786c0 7.062-5.725 12.786-12.786 12.786-2.32 0-4.495-0.618-6.371-1.698-1.388-0.799-2.611-1.852-3.608-3.094-0.41-0.51-0.782-1.054-1.11-1.625v-0c-1.080-1.876-1.698-4.050-1.698-6.37-0-7.062 5.725-12.786 12.786-12.786s12.786 5.725 12.786 12.786z"></path>
<path fill="#fff" style="fill: var(--color3, #fff)" d="M32 9.548c0 5.273-4.275 9.548-9.548 9.548s-9.548-4.275-9.548-9.548c0-5.273 4.275-9.548 9.548-9.548s9.548 4.275 9.548 9.548z"></path>
<path fill="#fff" style="fill: var(--color3, #fff)" d="M15.655 16.254c-3.684-3.732-3.669-9.744 0.045-13.458s9.726-3.729 13.458-0.045c-1.951-1.858-6.492-0.389-10.192 3.311s-5.169 8.241-3.311 10.192z"></path>
<path fill="#fee670" style="fill: var(--color4, #fee670)" d="M21.344 21.876l-13.316 7.999c-2.451-1.411-4.493-3.453-5.904-5.904l7.999-13.316 11.22 11.221z"></path>
<path fill="#edaa5c" style="fill: var(--color5, #edaa5c)" d="M13.31 13.842l-9.797 12.163c-0.513-0.639-0.978-1.319-1.389-2.033v-0.001l7.999-13.315 3.186 3.186z"></path>
<path fill="#edaa5c" style="fill: var(--color5, #edaa5c)" d="M24.704 19.279l-3.984 3.984c-0.63 0.63-1.652 0.63-2.282 0l-9.7-9.7c-0.63-0.63-0.63-1.652 0-2.282l3.984-3.984 11.982 11.982z"></path>
<path fill="#edaa5c" style="fill: var(--color5, #edaa5c)" d="M21.344 21.876l-3.764 2.261-8.843-8.843c-0.466-0.466-0.588-1.148-0.363-1.726 0.065-0.166 0.157-0.324 0.28-0.466 0.026-0.031 0.054-0.061 0.084-0.091l1.872-1.872 10.736 10.736z"></path>
<path fill="#fee670" style="fill: var(--color4, #fee670)" d="M22.99 20.993l-2.27 2.27c-0.63 0.63-1.652 0.63-2.282 0l-6.861-6.861c-0.63-0.63-0.63-1.652 0-2.282l2.27-2.27 9.143 9.143z"></path>
<path fill="#edaa5c" style="fill: var(--color5, #edaa5c)" d="M26.262 19.867c-0.258 0.258-0.596 0.387-0.935 0.387s-0.677-0.129-0.935-0.387l-12.259-12.259c-0.517-0.517-0.516-1.354 0-1.87 0.258-0.258 0.596-0.387 0.935-0.387s0.677 0.129 0.935 0.387l12.259 12.259c0.517 0.517 0.516 1.354 0 1.87z"></path>
<path fill="#fee670" style="fill: var(--color4, #fee670)" d="M26.262 19.867c-0.258 0.258-0.596 0.387-0.935 0.387s-0.677-0.129-0.935-0.387l-9.766-9.766c-0.516-0.516-0.516-1.354 0-1.87 0.258-0.258 0.597-0.387 0.935-0.387s0.677 0.129 0.935 0.387l9.766 9.766c0.517 0.517 0.516 1.354 0 1.87z"></path>
<path fill="#fff" style="fill: var(--color3, #fff)" d="M28.038 22.536v0c-0.676 0-1.224-0.548-1.224-1.224v-5.779c0-0.676 0.548-1.224 1.224-1.224v0c0.676 0 1.224 0.548 1.224 1.224v5.779c0 0.676-0.548 1.224-1.224 1.224z"></path>
<path fill="#fff" style="fill: var(--color3, #fff)" d="M22.145 18.569v0c-0.676 0-1.224-0.548-1.224-1.224v-5.779c0-0.676 0.548-1.224 1.224-1.224v0c0.676 0 1.224 0.548 1.224 1.224v5.779c-0 0.676-0.548 1.224-1.224 1.224z"></path>
<path fill="#fff" style="fill: var(--color3, #fff)" d="M20.109 15.042v0c-0.676 0-1.224-0.548-1.224-1.224v-5.779c0-0.676 0.548-1.224 1.224-1.224v0c0.676 0 1.224 0.548 1.224 1.224v5.779c0 0.676-0.548 1.224-1.224 1.224z"></path>
</symbol>

<!-- Button arrow icon -->
<symbol id="icon-arrow" viewBox="0 0 26 32">
<path fill="none" stroke="#d41443" style="stroke: var(--color1, #d41443)" stroke-linejoin="round" stroke-linecap="round" stroke-miterlimit="4" stroke-width="6.4" d="M3.542 3.2l16.826 12.8-16.826 12.8"></path>
</symbol>

<symbol id="hero-arrow-right-icon" viewBox="0 0 32 32">
<path d="M0 0h32v32h-32z"></path>
</symbol>

<!-- Hero arrow icon -->
<symbol id="hero-arrow-icon" viewBox="0 0 32 32">
<path d="M16 0c-8.837 0-16 7.163-16 16s7.163 16 16 16 16-7.164 16-16-7.163-16-16-16zM22.536 16.879l-5.657 5.657c-0.391 0.391-1.024 0.391-1.414 0s-0.391-1.024 0-1.414l4.121-4.122h-10.586c-0.552 0-1-0.448-1-1s0.448-1 1-1h10.586l-4.121-4.121c-0.391-0.391-0.391-1.024 0-1.414s1.024-0.391 1.414 0l5.657 5.657c0.24 0.24 0.314 0.568 0.26 0.879 0.054 0.309-0.021 0.638-0.26 0.878z"></path>
</symbol>

</defs>
</svg>
